<?xml version="1.0" encoding="iso-8859-1"?>
<!-- Uploaded to: SVG Repo, www.svgrepo.com, Transformed by: SVG Repo Mixer Tools -->
<svg version="1.1" id="Layer_1" xmlns="http://www.w3.org/2000/svg" xmlns:xlink="http://www.w3.org/1999/xlink" 
	 viewBox="0 0 512.001 512.001" xml:space="preserve">
<g>
	<path style="fill:#FEC373;" d="M359.538,165.052l-9.479,0.003l-0.016-51.081l9.478-0.003c8.076-0.002,14.626,6.542,14.628,14.62
		l0.008,21.833C374.161,158.5,367.615,165.049,359.538,165.052z"/>
	<path style="fill:#FEC373;" d="M152.476,165.126l9.479-0.003l-0.016-51.081l-9.479,0.003c-8.076,0.002-14.622,6.552-14.62,14.628
		l0.008,21.833C137.85,158.584,144.4,165.128,152.476,165.126z"/>
</g>
<polygon style="fill:#FED9A8;" points="255.999,387.057 340.557,306.626 302.561,289.658 297.236,257.676 256.725,244.418 
	256.725,243.915 255.999,244.167 255.272,243.915 255.272,244.418 214.761,257.676 209.436,289.658 170.714,306.899 "/>
<path style="fill:#37CC8F;" d="M504.286,391.994c-2.806-31.72-25.314-58.221-56.162-66.124l-103.677-26.56l-88.448,83.376
	l-88.448-83.376L63.875,325.87c-30.848,7.902-53.357,34.404-56.162,66.124L0.058,478.55c-0.75,8.476,5.928,15.77,14.437,15.77
	h240.417h2.177h240.417c8.508,0,15.187-7.295,14.437-15.77L504.286,391.994z"/>
<path style="fill:#2AA86F;" d="M504.286,391.994c-2.806-31.72-25.314-58.221-56.162-66.124l-103.677-26.56l-5.268,4.967
	l84.29,21.593c30.848,7.902,53.357,34.404,56.162,66.124l9.051,102.326h8.824c8.508,0,15.187-7.295,14.437-15.77L504.286,391.994z"
	/>
<path style="fill:#FED9A8;" d="M292.826,267.196l-1.091,0.284c-23.876,6.231-48.847,6.196-72.708-0.101l0,0
	c-36.723-9.691-62.472-44.341-62.485-84.085L156.514,98l198.975-0.065L355.516,183C355.53,222.852,329.67,257.582,292.826,267.196z"
	/>
<path style="fill:#F7CA94;" d="M355.489,97.937l-24.655,0.008l0.028,85.057c0.013,39.85-25.848,74.58-62.691,84.194l-1.091,0.284
	c-7.847,2.048-15.813,3.404-23.818,4.099c16.21,1.402,32.584,0.048,48.474-4.099l1.091-0.284
	c36.844-9.615,62.705-44.344,62.691-84.194L355.489,97.937z"/>
<g>
	<path style="fill:#98D888;" d="M355.504,144.87c-0.005,0.005-0.009,0.008-0.014,0.013l-37.583,39.083
		c-1.665,1.737-1.607,4.493,0.13,6.158c0.844,0.81,1.929,1.212,3.014,1.212c1.145,0,2.289-0.45,3.144-1.34l31.314-32.66
		L355.504,144.87z"/>
	<path style="fill:#98D888;" d="M156.529,144.55l0.004,12.822l31.555,32.636c0.855,0.884,1.992,1.328,3.131,1.328
		c1.09,0,2.181-0.407,3.027-1.225c1.729-1.672,1.776-4.429,0.103-6.158L156.529,144.55z"/>
</g>
<path style="fill:#B6EDAA;" d="M325.153,182.817c-46.408,7.784-91.809,7.798-138.222,0.045c-2.641,19.939-5.283,39.879-7.925,59.818
	c10.55,11.779,24.277,20.541,40.033,24.699l0,0c23.861,6.296,48.832,6.331,72.708,0.101l1.091-0.284
	c15.848-4.135,29.654-12.925,40.253-24.763C330.445,222.561,327.799,202.689,325.153,182.817z"/>
<g>
	<path style="fill:#2AA86F;" d="M97.328,494.321l6.961-78.463c0.398-4.492-2.92-8.457-7.412-8.856
		c-4.5-0.396-8.457,2.92-8.856,7.412l-7.026,79.185c-0.022,0.243-0.027,0.482-0.027,0.721h16.359V494.321z"/>
	<path style="fill:#2AA86F;" d="M431.001,493.599l-7.026-79.185c-0.398-4.492-4.358-7.811-8.856-7.412
		c-4.491,0.398-7.811,4.364-7.412,8.856l6.961,78.463h16.359C431.028,494.081,431.023,493.842,431.001,493.599z"/>
</g>
<path style="fill:#B6EDAA;" d="M319.549,17.68h-127.1c-20.867,0-37.783,16.916-37.783,37.783v55.851h202.667V59.82
	C357.332,38.954,340.416,17.68,319.549,17.68z"/>
<path style="fill:#98D888;" d="M319.549,17.68h-24.655c20.867,0,37.783,21.274,37.783,42.141v51.493h24.655V59.82
	C357.332,38.954,340.416,17.68,319.549,17.68z"/>
<rect x="154.664" y="77.572" style="fill:#4D4D4D;" width="202.668" height="10.7"/>
<circle style="fill:#CCCCCC;" cx="256.004" cy="82.918" r="25.672"/>
<circle style="fill:#E6E6E6;" cx="256.004" cy="82.918" r="21.19"/>
<g>
	<circle style="fill:#FEE570;" cx="256.004" cy="82.918" r="16.123"/>
	<circle style="fill:#FEE570;" cx="256.004" cy="82.918" r="16.123"/>
</g>
<circle style="fill:#FFF6D2;" cx="249.188" cy="76.473" r="4.899"/>
<polygon style="fill:#666666;" points="365.988,304.829 357.329,302.609 357.329,363.118 365.988,363.118 "/>
<g>
	<path style="fill:#999999;" d="M349.964,474.79l-6.826-1.757c-1.243-0.32-2.544,0.247-3.155,1.375l-3.843,7.089
		c-0.612,1.128-0.377,2.528,0.569,3.395l5.198,4.761c1.341,1.229,3.481,0.87,4.347-0.729l5.472-10.093
		C352.592,477.232,351.725,475.244,349.964,474.79z"/>
	<path style="fill:#999999;" d="M373.353,474.79l6.826-1.757c1.243-0.32,2.544,0.247,3.155,1.375l3.843,7.089
		c0.612,1.128,0.377,2.528-0.569,3.395l-5.198,4.761c-1.341,1.229-3.481,0.87-4.347-0.729l-5.472-10.093
		C370.725,477.232,371.591,475.244,373.353,474.79z"/>
</g>
<path style="fill:#666666;" d="M369.478,362.302h-7.82h-7.82c-16.046,0-29.1,13.259-29.1,29.556v70.965
	c0,7.3,3.954,14.057,10.319,17.632l1.262,0.709l3.539-6.529l-1.165-0.654c-4.027-2.263-6.529-6.538-6.529-11.157v-70.965
	c0-12.203,9.722-22.129,21.672-22.129h7.82h7.82c11.951,0,21.672,9.927,21.672,22.129v70.965c0,4.62-2.502,8.895-6.529,11.157
	l-1.165,0.654l3.539,6.529l1.262-0.709c6.365-3.575,10.319-10.332,10.319-17.632v-70.965
	C398.578,375.561,385.524,362.302,369.478,362.302z"/>
<polygon style="fill:#999999;" points="367.641,359.817 367.641,355.213 355.675,355.213 355.675,359.817 353.51,359.817 
	353.51,371.782 369.808,371.782 369.808,359.817 "/>
<polygon style="fill:#666666;" points="144.505,305.214 135.847,307.476 135.847,402.093 144.505,402.093 "/>
<ellipse style="fill:#CCCCCC;" cx="140.173" cy="414.318" rx="13.604" ry="13.848"/>
<rect x="134.534" y="377.899" style="fill:#E6E6E6;" width="11.594" height="12.946"/>
<ellipse style="fill:#CCCCCC;" cx="140.173" cy="414.318" rx="26.11" ry="26.579"/>
<ellipse style="fill:#E6E6E6;" cx="140.173" cy="414.318" rx="21.884" ry="22.275"/>
<ellipse style="fill:#F2F2F2;" cx="140.173" cy="414.318" rx="12.009" ry="12.229"/>
<g>
	<path style="fill:#4D4D4D;" d="M203.286,147.714c-4.51,0-8.166-3.656-8.166-8.166v-6.543c0-4.51,3.656-8.166,8.166-8.166
		s8.165,3.656,8.165,8.166v6.543C211.452,144.058,207.796,147.714,203.286,147.714z"/>
	<path style="fill:#4D4D4D;" d="M308.711,147.714c-4.51,0-8.165-3.656-8.165-8.166v-6.543c0-4.51,3.656-8.166,8.165-8.166
		c4.51,0,8.165,3.656,8.165,8.166v6.543C316.877,144.058,313.221,147.714,308.711,147.714z"/>
</g>
</svg>