<svg xmlns="http://www.w3.org/2000/svg" xmlns:xlink="http://www.w3.org/1999/xlink" width="500" zoomAndPan="magnify" viewBox="0 0 375 374.999991" height="500" preserveAspectRatio="xMidYMid meet" version="1.0"><defs><g/><clipPath id="90c7336ded"><path d="M 127 115 L 349.328125 115 L 349.328125 337 L 127 337 Z M 127 115 " clip-rule="nonzero"/></clipPath><clipPath id="071568c4ab"><path d="M 25.328125 13.152344 L 248 13.152344 L 248 236 L 25.328125 236 Z M 25.328125 13.152344 " clip-rule="nonzero"/></clipPath></defs><g clip-path="url(#90c7336ded)"><path fill="#6c33dd" d="M 223.03125 336.988281 L 152.363281 336.988281 C 138.726562 336.988281 127.566406 325.828125 127.566406 312.191406 L 127.566406 268.386719 C 127.566406 241.027344 149.800781 218.792969 177.160156 218.792969 L 324.695312 218.792969 C 329.242188 218.792969 332.960938 215.074219 332.960938 210.527344 L 332.960938 139.859375 C 332.960938 135.3125 329.242188 131.59375 324.695312 131.59375 L 272.625 131.59375 L 272.625 115.0625 L 324.695312 115.0625 C 338.332031 115.0625 349.492188 126.222656 349.492188 139.859375 L 349.492188 210.527344 C 349.492188 224.167969 338.332031 235.324219 324.695312 235.324219 L 177.242188 235.324219 C 158.976562 235.324219 144.179688 250.121094 144.179688 268.386719 L 144.179688 312.191406 C 144.179688 316.738281 147.902344 320.457031 152.445312 320.457031 L 223.117188 320.457031 C 227.660156 320.457031 231.378906 316.738281 231.378906 312.191406 L 231.378906 260.121094 L 247.910156 260.121094 L 247.910156 312.191406 C 247.828125 325.828125 236.753906 336.988281 223.03125 336.988281 Z M 223.03125 336.988281 " fill-opacity="1" fill-rule="nonzero"/></g><g clip-path="url(#071568c4ab)"><path fill="#38b6ff" d="M 102.855469 235.324219 L 50.785156 235.324219 C 37.144531 235.324219 25.988281 224.167969 25.988281 210.527344 L 25.988281 139.859375 C 25.988281 126.222656 37.144531 115.0625 50.785156 115.0625 L 198.320312 115.0625 C 216.585938 115.0625 231.378906 100.269531 231.378906 82.003906 L 231.378906 38.195312 C 231.378906 33.652344 227.660156 29.929688 223.117188 29.929688 L 152.445312 29.929688 C 147.902344 29.929688 144.179688 33.652344 144.179688 38.195312 L 144.179688 90.269531 L 127.652344 90.269531 L 127.652344 38.195312 C 127.652344 24.558594 138.808594 13.402344 152.445312 13.402344 L 223.117188 13.402344 C 236.753906 13.402344 247.910156 24.558594 247.910156 38.195312 L 247.910156 82.003906 C 247.910156 109.359375 225.675781 131.59375 198.320312 131.59375 L 50.699219 131.59375 C 46.15625 131.59375 42.4375 135.3125 42.4375 139.859375 L 42.4375 210.527344 C 42.4375 215.074219 46.15625 218.792969 50.699219 218.792969 L 102.773438 218.792969 L 102.773438 235.324219 Z M 102.855469 235.324219 " fill-opacity="1" fill-rule="nonzero"/></g><g fill="#38b6ff" fill-opacity="1"><g transform="translate(92.78397, 203.003563)"><g><path d="M 8.183594 0 L 15.246094 0 L 15.246094 -43.015625 L 33.867188 -14.925781 L 39.644531 -14.925781 L 58.261719 -42.933594 L 58.261719 0 L 65.324219 0 L 65.324219 -56.175781 L 58.742188 -56.175781 L 36.835938 -22.871094 L 14.765625 -56.175781 L 8.183594 -56.175781 Z M 8.183594 0 "/></g></g></g><g fill="#ffffff" fill-opacity="1"><g transform="translate(168.287345, 203.003563)"><g><path d="M 2.726562 0 L 10.914062 0 L 18.054688 -9.46875 L 23.191406 -16.453125 L 28.246094 -9.46875 L 35.308594 0 L 43.496094 0 L 27.527344 -21.1875 L 42.691406 -41.648438 L 34.667969 -41.648438 L 28.167969 -32.820312 L 23.113281 -25.921875 L 18.136719 -32.820312 L 11.636719 -41.648438 L 3.53125 -41.648438 L 18.699219 -21.1875 Z M 2.726562 0 "/></g></g></g><g fill="#6c33dd" fill-opacity="1"><g transform="translate(216.594133, 203.003563)"><g><path d="M 45.019531 0 L 52.082031 0 L 52.082031 -56.175781 L 45.019531 -56.175781 L 45.019531 -32.019531 L 15.246094 -32.019531 L 15.246094 -56.175781 L 8.183594 -56.175781 L 8.183594 0 L 15.246094 0 L 15.246094 -25.277344 L 45.019531 -25.277344 Z M 45.019531 0 "/></g></g></g></svg>