<svg xmlns="http://www.w3.org/2000/svg" xmlns:xlink="http://www.w3.org/1999/xlink" width="500" zoomAndPan="magnify" viewBox="0 0 375 374.999991" height="500" preserveAspectRatio="xMidYMid meet" version="1.0"><defs><g/><clipPath id="47312e01e2"><path d="M 123.671875 55.835938 L 251.171875 55.835938 L 251.171875 178 L 123.671875 178 Z M 123.671875 55.835938 " clip-rule="nonzero"/></clipPath></defs><g clip-path="url(#47312e01e2)"><path fill="#cb6ce6" d="M 245.257812 130.550781 C 242.660156 130.550781 240.480469 132.234375 239.6875 134.5625 L 232.179688 134.5625 L 228.972656 129.261719 C 228.527344 128.527344 227.699219 128.125 226.84375 128.222656 C 225.992188 128.324219 225.28125 128.914062 225.019531 129.726562 L 222.601562 137.261719 L 216.722656 101.761719 C 216.542969 100.671875 215.554688 99.886719 214.476562 99.933594 C 213.375 99.984375 212.480469 100.847656 212.390625 101.945312 L 207.914062 158.382812 L 202.671875 128.382812 C 202.5 127.410156 201.703125 126.675781 200.726562 126.582031 C 199.738281 126.488281 198.824219 127.0625 198.472656 127.988281 L 195.261719 136.484375 L 193.199219 132.269531 C 192.832031 131.515625 192.074219 131.042969 191.238281 131.042969 L 172.503906 131.042969 C 171.300781 131.042969 170.324219 132.019531 170.320312 133.222656 L 170.320312 151.648438 C 170.320312 163.238281 160.890625 172.675781 149.304688 172.675781 L 149.058594 172.675781 C 137.472656 172.675781 128.046875 163.246094 128.046875 151.648438 L 128.046875 114.695312 L 174.691406 114.695312 L 174.691406 81.371094 C 174.6875 67.371094 163.300781 55.976562 149.296875 55.976562 L 149.054688 55.976562 C 135.0625 55.976562 123.671875 67.371094 123.671875 81.371094 L 123.671875 151.65625 C 123.671875 165.660156 135.0625 177.050781 149.058594 177.050781 L 149.304688 177.050781 C 163.300781 177.050781 174.691406 165.660156 174.691406 151.65625 L 174.691406 135.417969 L 189.875 135.417969 L 193.5625 142.945312 C 193.945312 143.726562 194.746094 144.195312 195.625 144.164062 C 196.496094 144.125 197.257812 143.574219 197.566406 142.753906 L 199.742188 137 L 206.582031 176.125 C 206.765625 177.175781 207.679688 177.933594 208.734375 177.933594 C 208.769531 177.933594 208.804688 177.933594 208.832031 177.933594 C 209.9375 177.882812 210.824219 177.019531 210.90625 175.925781 L 215.328125 120.128906 L 219.761719 146.894531 C 219.929688 147.890625 220.75 148.644531 221.757812 148.71875 C 222.777344 148.792969 223.691406 148.167969 224 147.207031 L 227.714844 135.636719 L 229.078125 137.886719 C 229.476562 138.539062 230.1875 138.941406 230.949219 138.941406 L 239.90625 138.941406 C 240.84375 140.96875 242.882812 142.378906 245.257812 142.378906 C 248.523438 142.378906 251.171875 139.730469 251.171875 136.460938 C 251.171875 133.195312 248.523438 130.550781 245.257812 130.550781 Z M 245.257812 130.550781 " fill-opacity="1" fill-rule="nonzero"/></g><g fill="#5ce1e6" fill-opacity="1"><g transform="translate(8.125879, 235.659594)"><g><path d="M 36.453125 -35.640625 L 36.453125 0 L 29.828125 0 L 29.828125 -15.265625 L 11.40625 -15.265625 L 11.40625 0 L 4.78125 0 L 4.78125 -35.640625 L 11.40625 -35.640625 L 11.40625 -20.921875 L 29.828125 -20.921875 L 29.828125 -35.640625 Z M 36.453125 -35.640625 "/></g></g></g><g fill="#5ce1e6" fill-opacity="1"><g transform="translate(49.35047, 235.659594)"><g><path d="M 31.515625 -5.546875 L 31.515625 0 L 4.78125 0 L 4.78125 -35.640625 L 30.796875 -35.640625 L 30.796875 -30.078125 L 11.40625 -30.078125 L 11.40625 -20.828125 L 28.609375 -20.828125 L 28.609375 -15.375 L 11.40625 -15.375 L 11.40625 -5.546875 Z M 31.515625 -5.546875 "/></g></g></g><g fill="#5ce1e6" fill-opacity="1"><g transform="translate(83.449822, 235.659594)"><g><path d="M 27.890625 -8.25 L 10.078125 -8.25 L 6.5625 0 L -0.25 0 L 15.78125 -35.640625 L 22.296875 -35.640625 L 38.390625 0 L 31.453125 0 Z M 25.703125 -13.4375 L 18.984375 -29.015625 L 12.3125 -13.4375 Z M 25.703125 -13.4375 "/></g></g></g><g fill="#5ce1e6" fill-opacity="1"><g transform="translate(121.569849, 235.659594)"><g><path d="M 4.78125 -35.640625 L 11.40625 -35.640625 L 11.40625 -5.59375 L 30.03125 -5.59375 L 30.03125 0 L 4.78125 0 Z M 4.78125 -35.640625 "/></g></g></g><g fill="#5ce1e6" fill-opacity="1"><g transform="translate(152.055683, 235.659594)"><g><path d="M 12.015625 -30.03125 L 0.203125 -30.03125 L 0.203125 -35.640625 L 30.4375 -35.640625 L 30.4375 -30.03125 L 18.625 -30.03125 L 18.625 0 L 12.015625 0 Z M 12.015625 -30.03125 "/></g></g></g><g fill="#5ce1e6" fill-opacity="1"><g transform="translate(182.694204, 235.659594)"><g><path d="M 36.453125 -35.640625 L 36.453125 0 L 29.828125 0 L 29.828125 -15.265625 L 11.40625 -15.265625 L 11.40625 0 L 4.78125 0 L 4.78125 -35.640625 L 11.40625 -35.640625 L 11.40625 -20.921875 L 29.828125 -20.921875 L 29.828125 -35.640625 Z M 36.453125 -35.640625 "/></g></g></g><g fill="#5ce1e6" fill-opacity="1"><g transform="translate(223.918795, 235.659594)"><g><path d="M 12.015625 -30.03125 L 0.203125 -30.03125 L 0.203125 -35.640625 L 30.4375 -35.640625 L 30.4375 -30.03125 L 18.625 -30.03125 L 18.625 0 L 12.015625 0 Z M 12.015625 -30.03125 "/></g></g></g><g fill="#5ce1e6" fill-opacity="1"><g transform="translate(254.557304, 235.659594)"><g><path d="M 31.515625 -5.546875 L 31.515625 0 L 4.78125 0 L 4.78125 -35.640625 L 30.796875 -35.640625 L 30.796875 -30.078125 L 11.40625 -30.078125 L 11.40625 -20.828125 L 28.609375 -20.828125 L 28.609375 -15.375 L 11.40625 -15.375 L 11.40625 -5.546875 Z M 31.515625 -5.546875 "/></g></g></g><g fill="#5ce1e6" fill-opacity="1"><g transform="translate(288.656667, 235.659594)"><g><path d="M 21.28125 0.515625 C 17.675781 0.515625 14.421875 -0.269531 11.515625 -1.84375 C 8.617188 -3.425781 6.347656 -5.609375 4.703125 -8.390625 C 3.054688 -11.179688 2.234375 -14.320312 2.234375 -17.8125 C 2.234375 -21.3125 3.066406 -24.453125 4.734375 -27.234375 C 6.398438 -30.015625 8.679688 -32.191406 11.578125 -33.765625 C 14.484375 -35.347656 17.734375 -36.140625 21.328125 -36.140625 C 24.242188 -36.140625 26.90625 -35.628906 29.3125 -34.609375 C 31.726562 -33.597656 33.769531 -32.125 35.4375 -30.1875 L 31.15625 -26.171875 C 28.570312 -28.953125 25.398438 -30.34375 21.640625 -30.34375 C 19.191406 -30.34375 17 -29.804688 15.0625 -28.734375 C 13.132812 -27.671875 11.625 -26.1875 10.53125 -24.28125 C 9.445312 -22.382812 8.90625 -20.226562 8.90625 -17.8125 C 8.90625 -15.40625 9.445312 -13.25 10.53125 -11.34375 C 11.625 -9.445312 13.132812 -7.960938 15.0625 -6.890625 C 17 -5.828125 19.191406 -5.296875 21.640625 -5.296875 C 25.398438 -5.296875 28.570312 -6.703125 31.15625 -9.515625 L 35.4375 -5.453125 C 33.769531 -3.515625 31.722656 -2.035156 29.296875 -1.015625 C 26.867188 0.00390625 24.195312 0.515625 21.28125 0.515625 Z M 21.28125 0.515625 "/></g></g></g><g fill="#5ce1e6" fill-opacity="1"><g transform="translate(325.657015, 235.659594)"><g><path d="M 36.453125 -35.640625 L 36.453125 0 L 29.828125 0 L 29.828125 -15.265625 L 11.40625 -15.265625 L 11.40625 0 L 4.78125 0 L 4.78125 -35.640625 L 11.40625 -35.640625 L 11.40625 -20.921875 L 29.828125 -20.921875 L 29.828125 -35.640625 Z M 36.453125 -35.640625 "/></g></g></g></svg>